<svg width="8" height="14" viewBox="0 0 8 14" fill="none" xmlns="http://www.w3.org/2000/svg">
<path d="M4.63806 12.4703V13.4602C4.63806 13.758 4.39596 13.9993 4.09711 13.9993C3.79381 14.0143 3.53577 13.781 3.52158 13.4788C3.52158 13.4726 3.5207 13.4664 3.5207 13.4602V12.488C2.28893 12.4483 1.11123 11.9754 0.195174 11.1535C0.0692363 11.0262 -0.000811492 10.8548 6.65066e-05 10.6763C-0.00525636 10.268 0.309561 9.92682 0.718379 9.89852C0.879766 9.90204 1.03586 9.95774 1.1618 10.0576C1.83045 10.6179 2.64633 10.9759 3.51184 11.0917V7.55644C1.87122 7.11456 0.15967 6.55775 0.15967 4.55154C0.15967 2.91652 1.51648 1.68803 3.51181 1.54664V0.539117C3.51626 0.243035 3.75568 0.00442975 4.05277 0C4.35162 0 4.59373 0.241285 4.59373 0.539117V1.59083C5.61621 1.64915 6.59172 2.04066 7.36943 2.70442C7.49537 2.83168 7.56542 3.00315 7.56454 3.18165C7.5601 3.59791 7.21957 3.93288 6.80189 3.93288C6.67154 3.9311 6.5456 3.89134 6.43829 3.81798C5.9 3.4079 5.27036 3.13481 4.60259 3.02256V6.12467C6.24318 6.56658 7.99907 7.20291 7.99907 9.28866C8.03454 10.8442 7.05906 12.3113 4.63806 12.4703ZM3.52067 2.95188C2.4831 3.03142 1.80026 3.62356 1.80026 4.4455C1.80026 5.26743 2.55405 5.55909 3.52067 5.84188V2.95188ZM4.63806 7.89228V11.1093C5.95053 10.9502 6.41168 10.1548 6.41168 9.4831C6.42054 8.55513 5.64016 8.1751 4.63806 7.89228Z" fill="#439F90"/>
</svg>
